<svg id="eight" xmlns="http://www.w3.org/2000/svg" viewBox="0 0 256 256">
  <g id="border8">
    <circle cx="128" cy="128" r="115.5" fill="#fff"/>
    <path d="M128,20.5A107.49,107.49,0,0,1,204,204,107.49,107.49,0,1,1,52,52,106.77,106.77,0,0,1,128,20.5m0-16A123.5,123.5,0,1,0,251.5,128,123.5,123.5,0,0,0,128,4.5Z"/>
  </g>
  <g id="icon8">
    <path d="M92.79,91.54S90.7,74.46,106,67.84h49.85s13.59,3.83,13.59,23.7h24.06s12.9.35,12.9,18.13v64.84s-3.84,12.9-14.3,13.59H66.65s-15.34,1.75-17.09-13.24V106.53a17.31,17.31,0,0,1,14.3-14.29Z"/>
    <circle cx="184.65" cy="110.54" r="5.05" fill="#fff"/>
    <ellipse cx="127.29" cy="137.56" rx="40.45" ry="36.6" fill="#fff"/>
  </g>
  <g id="add8">
    <ellipse cx="126.03" cy="135.56" rx="23.88" ry="22.66"/>
  </g>
</svg>
