<svg xmlns="http://www.w3.org/2000/svg" viewBox="0 0 256 256">
  <g id="four">
    <g id="border4">
      <circle cx="128" cy="128" r="115.5" fill="#fff"/>
      <path d="M128,20.5A107.49,107.49,0,0,1,204,204,107.49,107.49,0,1,1,52,52,106.77,106.77,0,0,1,128,20.5m0-16A123.5,123.5,0,1,0,251.5,128,123.5,123.5,0,0,0,128,4.5Z"/>
    </g>
    <g id="icon4">
      <path d="M40.67,143.3l174.87-.67s-1.41,20.76-23.36,30.81c0,0-39.29,9-39.29,20.09l-49.21.34s-1.06-6.36-12-10.05l-14.52-5.69S41.73,166.07,40.67,143.3Z"/>
      <path d="M48.46,139l158.94,1s-3.18-19.42-46.37-16.41c0,0-32.21-23.11-67.61-.33C93.42,123.21,55.19,118.85,48.46,139Z"/>
    </g>
    <g id="add4">
      <path d="M156.32,65.16s-5.6,9.75,3.62,24.28c0,0,5.24,7.53-3.62,19.84,0,0,3.44-14-4.7-22.58C151.62,86.7,148,74.05,156.32,65.16Z"/>
      <path d="M120.8,65.93s-5.6,9.74,3.62,24.28c0,0,5.24,7.52-3.62,19.84,0,0,3.44-14-4.7-22.58C116.1,87.47,112.49,74.82,120.8,65.93Z"/>
      <path d="M85.19,65.07s-5.6,9.75,3.62,24.29c0,0,5.24,7.52-3.62,19.83,0,0,3.44-14-4.7-22.57C80.49,86.62,76.88,74,85.19,65.07Z"/>
    </g>
  </g>
</svg>
