<svg xmlns="http://www.w3.org/2000/svg" viewBox="0 0 256 256">
  <g id="two">
    <g id="border2">
      <circle cx="128" cy="128" r="115.5" fill="#fff"/>
      <path d="M128,20.5A107.49,107.49,0,0,1,204,204,107.49,107.49,0,1,1,52,52,106.77,106.77,0,0,1,128,20.5m0-16A123.5,123.5,0,1,0,251.5,128,123.5,123.5,0,0,0,128,4.5Z"/>
    </g>
    <g id="icon2">
      <path d="M112.45,92.36l5.71-.8s8.59-10.75,20.71-4c0,0,7.44-9.6-1.66-19.41,0,0-6.42-6.57-16.38-2.68,0,0-7.65,3.33-8.38,10.69l9.89-1.52.29,7-10.25,1.45Z"/>
      <path d="M139.92,125.2l16.78-12.34L140.89,92s-5.84-7-14.4-3.57l-31.29,23-.75-4.66-14.62,5.74s-18.62,6.93-7.47,24.8c0,0,14.07-.33,22.84,9.2a46.1,46.1,0,0,1,9.42,20.79s3.79,7.14,20.79,7.58l28.26.75s-5.41-22.62,9.53-32.26c0,0,9.42-7.8,27.61-6.06,0,0,5-5.09.65-9.64l-25.23.11s-4.33-9.64-8.77-13.21L141,127.69l-23-.33s-6.39-.75-6.71,5.63c0,0-10.18-3-13.32-10.5l25.55-19.92Z"/>
    </g>
    <g id="add2">
      <ellipse cx="76.1" cy="164.37" rx="26.15" ry="25.82"/>
      <ellipse cx="182.72" cy="164.75" rx="26.15" ry="25.82"/>
    </g>
  </g>
</svg>
