<svg xmlns="http://www.w3.org/2000/svg" viewBox="0 0 256 256">
  <g id="six">
    <g id="border6">
      <circle cx="128" cy="128" r="115.5" fill="#f66"/>
      <path d="M128,20.5A107.49,107.49,0,0,1,204,204,107.49,107.49,0,1,1,52,52,106.77,106.77,0,0,1,128,20.5m0-16A123.5,123.5,0,1,0,251.5,128,123.5,123.5,0,0,0,128,4.5Z"/>
    </g>
    <g id="icon6">
      <path d="M185.59,123.47s23.32,2.33,22.38,36.84c0,0,1.4,25.65-22.38,29.85H169.26s-4.2.47-6.06-2.8V128.6s0-7.47,4.66-5.13c0,0,3.27-42.91-43.84-42.45,0,0-38.71,1.87-35.44,41.51a6.22,6.22,0,0,1,5.59,6.53l-.93,58.3s-.86,4.2-4.86,4.67H72.72S54.06,186.43,48,168.24V148.18s1.87-19.58,22.39-25.65c0,0-1.87-45.24,42.44-56.9a66.18,66.18,0,0,1,29.38,0S185.12,73.1,185.59,123.47Z"/>
    </g>
    <g id="add6">
      <path d="M146.25,124.11v9.79h-9.79v29.85s-9.65,20.05-25.19,7c0,0-7.46-21.46,8.86-23.79l3.27.93V127.37s-.91-10.05,6.77-9Z"/>
    </g>
  </g>
</svg>
