<svg xmlns="http://www.w3.org/2000/svg" viewBox="0 0 256 256">
  <g id="three">
    <g id="_3" data-name="3">
      <circle cx="128" cy="128" r="115.5" fill="#f99"/>
      <path d="M128,20.5A107.49,107.49,0,0,1,204,204,107.49,107.49,0,1,1,52,52,106.77,106.77,0,0,1,128,20.5m0-16A123.5,123.5,0,1,0,251.5,128,123.5,123.5,0,0,0,128,4.5Z"/>
    </g>
    <g id="icon3">
      <circle cx="161.99" cy="72.93" r="15.46"/>
      <polygon points="175.66 117.37 194.57 125.99 188.15 138.48 171.44 130.95 175.66 117.37"/>
      <polygon points="140.05 158.31 150.14 171.34 138.76 196.49 123.89 195.76 140.05 158.31"/>
      <path d="M163.36,138.29,170.52,162l14.87,34.14L170,195.94l-13-28.64L142.8,147.66s-5.32-3.49-4.22-14.32L144.09,110l-9,5.14L120.4,132.05l-2-1.47L92,181.44s-7.53-9.92-18.18-5c0,0-9.18,1.65-9.73,14.14,0,0-11.93-2.39-7.71-10.84l16.34-31.57a8.05,8.05,0,0,1,10.65-2.94l15.24,6.79L111,126.18l-3.12-1.84,15.24-17.44,14.68-10.1s6.8-4.59,12.49-4.59l13.58,2.21s10.28,2.94,7,13.4Z"/>
    </g>
    <g id="add3">
      <circle cx="77.41" cy="188.56" r="8.54"/>
    </g>
  </g>
</svg>
