<svg xmlns="http://www.w3.org/2000/svg" viewBox="0 0 256 256">
  <g id="five">
    <g id="border5">
      <circle cx="128" cy="128" r="115.5" fill="#fff"/>
      <path d="M128,20.5A107.49,107.49,0,0,1,204,204,107.49,107.49,0,1,1,52,52,106.77,106.77,0,0,1,128,20.5m0-16A123.5,123.5,0,1,0,251.5,128,123.5,123.5,0,0,0,128,4.5Z"/>
    </g>
    <g id="icon5">
      <path d="M152.79,91.09a31.23,31.23,0,0,1,11.2,9.5s9,9.74,15.6,13.16c0,0,13.15,8.52,16.81,21.92,0,0,4.38,15.35,4.87,17.54,0,0,2.19,4.39,1,13.16,0,0,4.39,15.84-7.79,16.57,0,0,6.58-2.44,6.33-8.77,0,0,.49-8.77-16.57-20Z"/>
      <polygon points="137.92 87.68 145.72 83.29 179.1 151.51 167.65 147.12 137.92 87.68"/>
      <path d="M183,183.91s7.79,1.71,11.45.25c0,0,1.22,6.33,0,8.77l1,5.11-1.7.49-1.95-3.9S188.36,193.17,183,183.91Z"/>
      <path d="M119.65,75.25s-.24-2.19,3.17-2.92l17.54,34.11s-1,3.41-3.17,1.7Z"/>
      <path d="M135.73,94l2.19-1.22,20,40.93s-8.28-1.7-8.28,6.58c0,0-1,4.39,8.77,8,0,0,36.79,12.67,37.76,20.22,0,0,5.85,10.48-3.65,12.92,0,0-9.26,2.43-16.33-1.22,0,0-2.43,13.88-12.91,10,0,0-5.85-3.9-3.17-9.75,0,0-20.7,15.84-24.12,6.58l-1-8.28s-21.2,10.23-17.54-7.56c0,0,3.41-4.63,8.77-4.63,0,0-31.43.25-53.36-8.28,0,0-5.6-4.63-24.6-6.33,0,0-8.29-14.38,1.95-43.61,0,0,14.37,6.57,77.47-12.92l7.8,12.67s2.43,4.14,5.36-.24a4.21,4.21,0,0,0,.48-2.93Z"/>
    </g>
    <g id="add5">
      <path d="M117.19,41.29l3.41-1.95S137.9,61,148.87,82.22l-12.19,7.56-3.41-8-2.19,1.46-2.68-3.9,2.19-1.22S118.66,51,117.19,41.29Z"/>
    </g>
  </g>
</svg>
