<svg xmlns="http://www.w3.org/2000/svg" viewBox="0 0 256 256">
  <g id="one">
    <g id="border1">
      <circle cx="128" cy="128" r="115.5" fill="#fff"/>
      <path d="M128,20.5A107.49,107.49,0,0,1,204,204,107.49,107.49,0,1,1,52,52,106.77,106.77,0,0,1,128,20.5m0-16A123.5,123.5,0,1,0,251.5,128,123.5,123.5,0,0,0,128,4.5Z"/>
    </g>
    <g id="icon1">
      <g>
        <path d="M130.77,172.06v-64S147,85.56,179.78,84l.39,66.48S148.41,151.93,130.77,172.06Z" stroke="#fff" stroke-miterlimit="10"/>
        <path d="M124.5,108.5l.26,63.79s-16.08-19.35-49.92-21.6l.52-67S107.25,85.33,124.5,108.5Z"/>
        <path d="M186.18,98.83s4.44.67,6.27,2L192.32,169a101.56,101.56,0,0,0-52.8,2.37s16.47-14.85,40.39-15.64c0,0,6.27,1.12,6.14-7.31Z"/>
        <path d="M69.71,99.8s-4.37.68-6.16,2L63.68,170a97.89,97.89,0,0,1,51.82,2.37s-16.17-14.85-39.64-15.64c0,0-6.15,1.12-6-7.31Z"/>
      </g>
    </g>
  </g>
</svg>
