<svg xmlns="http://www.w3.org/2000/svg" viewBox="0 0 256 256">
  <g id="seven">
    <g id="border7">
      <circle cx="128" cy="128" r="115.5" fill="#fff"/>
      <path d="M128,20.5A107.49,107.49,0,0,1,204,204,107.49,107.49,0,1,1,52,52,106.77,106.77,0,0,1,128,20.5m0-16A123.5,123.5,0,1,0,251.5,128,123.5,123.5,0,0,0,128,4.5Z"/>
    </g>
    <g id="add7">
      <path d="M54.76,130.67c-.12,0-.19.08-.19.15s.07.12.19.16l10.73,8.11a.43.43,0,0,1,.19.35.24.24,0,0,1-.27.24l-4.14-.16c-.35,0-.54-.15-1-.43l-11.47-7.76c-.11-.12-.23-.19-.23-.35a.46.46,0,0,1,.23-.35l11.78-9.2a1.21,1.21,0,0,1,1-.43l3.74-.16c.23,0,.31.08.31.23s-.15.28-.27.36Z" fill="#600"/>
      <path d="M72.62,118.77c0-1.44-.35-2.92-2.1-3.16A.61.61,0,0,1,70,115a.72.72,0,0,1,.7-.78H81.79c.35,0,.58.27.58.7a.68.68,0,0,1-.54.74c-1.72.63-2.19,2-2.27,3.83l-.19,5.46c0,.11,0,.19.16.19h7.91c1.1,0,1.76-.35,1.8-1.25l.19-5c0-1.48-.31-3-2.1-3.24a.63.63,0,0,1-.55-.66.74.74,0,0,1,.7-.78H98.64a.63.63,0,0,1,.58.7.72.72,0,0,1-.54.74c-1.84.63-2.27,2-2.34,3.86l-.55,15.76c0,1.52.35,3,2.11,3.2a.65.65,0,0,1,.58.7.68.68,0,0,1-.7.74H86.66c-.35,0-.58-.23-.58-.66a.76.76,0,0,1,.54-.78c1.95-.62,2.23-2.34,2.31-4.33l.19-5.89c0-.23-.16-.31-.43-.31H81.28c-1.4,0-2,.35-2.07,1.25L79,135.23c0,1.48.35,3,2.14,3.2a.65.65,0,0,1,.55.7.71.71,0,0,1-.7.74H69.85c-.35,0-.58-.23-.58-.66a.76.76,0,0,1,.54-.78c2-.62,2.27-2.42,2.31-4.33Z" fill="#600"/>
      <path d="M116.15,114.17c2.81,0,4.95-.19,6.2-.19a1.78,1.78,0,0,1,2,2c0,1.17-.31,4.33-.31,5.39a.75.75,0,0,1-.78.74.83.83,0,0,1-.82-.74,5.92,5.92,0,0,0-4.14-4.53,6.47,6.47,0,0,0-2.07-.35.47.47,0,0,0-.46.47l-.59,17.12c0,2.65,1,3.86,3.12,4.33a.73.73,0,0,1-.15,1.44H105.69c-.35,0-.58-.23-.58-.66a.73.73,0,0,1,.55-.78,4.47,4.47,0,0,0,2.61-4.29l.58-17.2a.45.45,0,0,0-.5-.43,8.22,8.22,0,0,0-2.19.27,7.38,7.38,0,0,0-4.72,4.53,1,1,0,0,1-1,.82.64.64,0,0,1-.63-.67l.94-5.53a2,2,0,0,1,2.11-2c1.83,0,3.55.19,5.65.19Z" fill="#600"/>
      <path d="M149,114.64c.16-.51,2.42-.66,4.68-.66,2.07,0,3.94.07,4,.66l2.57,20.44a3.63,3.63,0,0,0,2.85,3.35.74.74,0,0,1,.59.74.69.69,0,0,1-.74.7H150.74a.64.64,0,0,1-.7-.66.85.85,0,0,1,.66-.78c1.48-.27,2-1.13,2-2.73,0-.51-.12-1.13-.16-1.68l-1.28-15.72c0-.07,0-.11,0-.11s-.08,0-.08.11l-6.32,21.26c-.12.31-2.3.59-3.7.59s-3.55-.24-3.67-.63l-5.19-21.22c0-.07,0-.11-.08-.11s-.07,0-.07.11c-.16,1.37-.32,2.7-.51,4.06l-1.56,12.17a10.91,10.91,0,0,0-.12,1.64c0,1.67.9,2.14,2.19,2.26a.72.72,0,0,1,.66.74.65.65,0,0,1-.7.7h-7.88a.65.65,0,0,1-.74-.66.79.79,0,0,1,.7-.78,3.54,3.54,0,0,0,2.65-3.35l2.81-20.44c.08-.51,2.5-.66,4.88-.66,2,0,3.74.07,3.86.66l4.68,20c0,.15.07.19.15.19s.12,0,.16-.19Z" fill="#600"/>
      <path d="M173.71,134.49c0,2.46,1.48,3,3.71,3a7.27,7.27,0,0,0,5.42-1.95,6.84,6.84,0,0,0,1.91-3.12.92.92,0,0,1,.93-.7c.55,0,.82.39.82,1l-.47,5.45a2.12,2.12,0,0,1-2.37,1.92c-1.37,0-4.76-.28-8.7-.28H164.51c-.36,0-.59-.23-.59-.66a.77.77,0,0,1,.55-.78c1.87-.62,2.18-2.3,2.26-4.06l.54-15.52c0-1.48-.27-3-2.06-3.24a.61.61,0,0,1-.59-.66.74.74,0,0,1,.7-.78h11.2c.35,0,.58.27.58.7a.68.68,0,0,1-.54.74c-2,.63-2.3,2.54-2.34,4.29Z" fill="#600"/>
      <path d="M200,129.89c.07-.08.15-.12.15-.2s-.08-.11-.15-.15l-10.77-8.11a.41.41,0,0,1-.19-.36c0-.11.07-.23.27-.23l4.13.2a1.63,1.63,0,0,1,1,.39l11.5,7.76a.51.51,0,0,1,.2.35.42.42,0,0,1-.2.35l-11.77,9.24a1.39,1.39,0,0,1-1,.39l-3.78.16c-.24,0-.31-.08-.31-.24s.15-.27.27-.35Z" fill="#600"/>
    </g>
  </g>
</svg>
