<svg xmlns="http://www.w3.org/2000/svg" viewBox="0 0 256 256">
  <g id="project1">
    <g id="border1">
      <circle cx="128" cy="128" r="121" fill="#fff"/>
      <path d="M128,9.5a118.5,118.5,0,0,1,83.79,202.29A118.5,118.5,0,1,1,44.21,44.21,117.73,117.73,0,0,1,128,9.5m0-5A123.5,123.5,0,1,0,251.5,128,123.5,123.5,0,0,0,128,4.5Z" fill="#066"/>
    </g>
    <g id="num2">
      <g>
        <path d="M26.44,128.93c-1,0-1.57-.34-1.67-1a.7.7,0,0,1,0-.23,2,2,0,0,1,.07-.45,2.92,2.92,0,0,1,2.54-1.74c-.06-.79-.24-2.72-.54-5.77a3.94,3.94,0,0,1-3-1.93,3.84,3.84,0,0,1-.55-2A4.57,4.57,0,0,1,26,111.56a6.73,6.73,0,0,1,1.38-.55,10.73,10.73,0,0,1,2.42-.29,15,15,0,0,1,2.42.19q6.26.95,8.41,4.87c.08.17.16.33.22.48a7,7,0,0,1,.55,2.81,8.24,8.24,0,0,1-.48,2.77,10.15,10.15,0,0,1-5.8,5.73,15,15,0,0,1-2.93.94h-.1a.09.09,0,0,1-.07,0q0,.45-.06,1.32t0,1.32a6.93,6.93,0,0,1-.42,2.36,2.58,2.58,0,0,1-1.81,1.38,2,2,0,0,1-1.9-1.48.09.09,0,0,1,0-.06,5.4,5.4,0,0,1-.29-1.75v-.41c0-.22,0-.37,0-.46v-1.83Zm5.67-9.15c0,.7.07,1.72.07,3.06,0,1.09,0,1.92,0,2.48a3.19,3.19,0,0,0,2.77-2,2.58,2.58,0,0,0,.16-.87c0-1.22-.75-2.07-2.26-2.54A5.62,5.62,0,0,0,32.11,119.78Zm7-3a2.44,2.44,0,0,0-.94-1.91,1.61,1.61,0,0,0-.93-.32c-.41,0-.63.24-.65.58a1.46,1.46,0,0,0,.16.39A5.91,5.91,0,0,0,38.33,117a1.79,1.79,0,0,0,.33.2h.19a.33.33,0,0,0,.26-.26Z" fill="#066"/>
        <path d="M45,133.38c0-.37.08-1.85.25-4.45a1.26,1.26,0,0,1-1.35-.87l-.06-.39q0-1,1.41-1.77a1.07,1.07,0,0,0,.23-.1q.16-3.37.16-6.09a3.8,3.8,0,0,1-2.84-2.06,4.42,4.42,0,0,1,2.33-6.12,7.1,7.1,0,0,1,1.32-.52,10.58,10.58,0,0,1,2.41-.29,14.91,14.91,0,0,1,2.42.19q6.54,1,8.57,5.16a.77.77,0,0,0,.07.19,7.35,7.35,0,0,1,.06,5.58,9.33,9.33,0,0,1-3.67,4.61l-.94.54c1.06.43,1.7.7,1.94.81a10,10,0,0,1,3.25,2.55,3.89,3.89,0,0,1,1,2.51,2.39,2.39,0,0,1-1.36,2.29,3,3,0,0,1-1.32.29,4.15,4.15,0,0,1-2.19-.71,9.37,9.37,0,0,1-2.41-2.68A10.67,10.67,0,0,0,52,129.38l-.25-.19-1-.58a1.85,1.85,0,0,0-.39.06l-.39.06c-.21,1.49-.37,2.85-.48,4.1-.15,2-.66,3.23-1.55,3.57a3.42,3.42,0,0,1-.77.17,1.93,1.93,0,0,1-1.77-1.29.8.8,0,0,0-.1-.23A5.2,5.2,0,0,1,45,133.38ZM51,119.71a56.59,56.59,0,0,1-.55,5.71,4,4,0,0,0,3.45-1.58,2.73,2.73,0,0,0,.35-1.36,2.64,2.64,0,0,0-2-2.48A9.36,9.36,0,0,0,51,119.71Zm7.31-3a2.34,2.34,0,0,0-.93-1.91,1.48,1.48,0,0,0-.91-.32c-.43,0-.65.22-.67.58a1.67,1.67,0,0,0,.16.39A6.59,6.59,0,0,0,57.51,117l.35.2H58a.4.4,0,0,0,.26-.26Zm1.19,15.05a2.46,2.46,0,0,0-.93-1.91,1.61,1.61,0,0,0-.94-.32.58.58,0,0,0-.64.58,1.46,1.46,0,0,0,.16.39,6.59,6.59,0,0,0,1.58,1.51,1.81,1.81,0,0,0,.32.16h.2a.3.3,0,0,0,.25-.22Z" fill="#066"/>
        <path d="M67.14,116.42a7.22,7.22,0,0,1,3.65-4.73,5.73,5.73,0,0,1,2.57-.58,5.52,5.52,0,0,1,4.32,2.22,13.21,13.21,0,0,1,2.64,7.19,17.41,17.41,0,0,1,.1,1.9,15.87,15.87,0,0,1-1.64,7.22,10.21,10.21,0,0,1-4.93,5.15,8.08,8.08,0,0,1-2.07.62,7.47,7.47,0,0,1-1.09.06,7.62,7.62,0,0,1-5-1.9,9.76,9.76,0,0,1-3.16-5.74,13.7,13.7,0,0,1-.19-2.29,20,20,0,0,1,.55-4.31c.64-2.63,1.72-4.17,3.22-4.65a4.43,4.43,0,0,1,.68-.12.63.63,0,0,0,.19,0Zm2.16,4.29a2.34,2.34,0,0,0-.9-1.9,1.83,1.83,0,0,0-.93-.36c-.41,0-.63.25-.65.62a1.56,1.56,0,0,0,.16.38A5.92,5.92,0,0,0,68.56,121a3,3,0,0,0,.32.16H69a.26.26,0,0,0,.26-.23Zm1.81,1.13c0,.19-.1,1.32-.29,3.38a10,10,0,0,0-.1,1.32,5.11,5.11,0,0,0,.61,2.58,2.25,2.25,0,0,0,1.61,1.19,2.47,2.47,0,0,0,.36,0c1.2,0,2.13-.91,2.77-2.65a14.94,14.94,0,0,0,1-5.38,17.88,17.88,0,0,0-.36-3.51c-.62-2.77-1.85-4.17-3.67-4.19a4,4,0,0,0-2.32.84A15.62,15.62,0,0,0,69,117,5,5,0,0,1,71,120.9,6.22,6.22,0,0,1,71.11,121.84Zm4.41-9.15c-.26,0-.4.1-.42.25v.16a.61.61,0,0,0,.1.26,2.87,2.87,0,0,0,1.13,1h.16a.2.2,0,0,0,.13-.16.33.33,0,0,1,0-.1,1.46,1.46,0,0,0-.61-1.19A1.3,1.3,0,0,0,75.52,112.69Z" fill="#066"/>
        <path d="M89.73,127.28q0-1.38-.48-6.38c-.15-1.52-.22-2.8-.22-3.83a8.8,8.8,0,0,1,.61-3.51,4.43,4.43,0,0,1,2.41-2.39,3.31,3.31,0,0,1,1-.16,3.77,3.77,0,0,1,3.45,2.45,3,3,0,0,1,.26.55,15,15,0,0,1,.55,4.61,1.5,1.5,0,0,1,0,.29c0,.53,0,1.34.06,2.41.07,1.46.1,2.55.1,3.26A16.76,16.76,0,0,1,96,132.41l-.19.32a9.22,9.22,0,0,1-4.38,4.09,8.37,8.37,0,0,1-3.32.71,7.62,7.62,0,0,1-2.58-.45,7,7,0,0,1-3.71-3.22,9.84,9.84,0,0,1-.83-2.64,6.53,6.53,0,0,1-.07-.81c0-1,.39-1.49,1.1-1.51s1,.56,1.22,1.67a.61.61,0,0,1,0,.16,4.19,4.19,0,0,0,2,3.23,3.15,3.15,0,0,0,1.39.32,2.43,2.43,0,0,0,2.26-1.52,6.19,6.19,0,0,0,.35-1.06A18.89,18.89,0,0,0,89.73,127.28Zm5.64-10.57a.26.26,0,0,0,.23-.25.26.26,0,0,1,0-.1v-.45a4,4,0,0,0-1.51-3.45,1,1,0,0,0-.62-.23c-.3,0-.46.17-.48.49l0,.06a3.11,3.11,0,0,0,.71.94l.16.16a5,5,0,0,1,.68,1.77c.15.62.36,1,.64,1.06Z" fill="#066"/>
        <path d="M101.69,117c-1.4,0-2.11-.41-2.13-1.16s.56-1.17,1.68-1.52l.1,0h0l.06,0v-.36c0-1.65.52-2.62,1.55-2.9a2.38,2.38,0,0,1,.55-.06c1,0,1.73.71,2.22,2.06a20.18,20.18,0,0,1,5.29-.77q3.63,0,4.8,1.51a1.69,1.69,0,0,1,.38,1.1q0,2.25-3.51,2.67a15.93,15.93,0,0,1-1.77.07,42.9,42.9,0,0,1-4.42-.29c.07.68.12,1.68.17,3a7.56,7.56,0,0,1,2.28-.38c1.49,0,2.5.38,3,1.16a1.55,1.55,0,0,1,.29.93q0,2.61-5.67,2.61l-.1,2.32c-.06,1-.1,1.81-.12,2.32a14.92,14.92,0,0,1,5.12-1q4.77,0,5.28,3.26a4,4,0,0,1,.07.77,4.09,4.09,0,0,1-1.06,2.77,5.27,5.27,0,0,1-3.68,1.2h-.55a53.85,53.85,0,0,1-5.51-.58,24.39,24.39,0,0,0-3.54-.33h-1a2.14,2.14,0,0,1-.87-.13,1.82,1.82,0,0,1-.9-1.64,2.24,2.24,0,0,1,1.48-2.09l.65-.29.64-.29a6.92,6.92,0,0,1-.1-1.29v-1.78c0-1.11,0-2.24-.09-3.38a.82.82,0,0,1-.91-.71.63.63,0,0,1,0-.19,1.28,1.28,0,0,1,.78-1.13C102,120,101.82,118.24,101.69,117Zm8.35,4.15c-.26,0-.4.16-.42.36a.23.23,0,0,0,0,.09c0,.09.1.14.23.17H110l.16,0a.44.44,0,0,1,.22.13.78.78,0,0,0,.33.16h.09a.22.22,0,0,0,.16-.2v-.16c-.08-.25-.38-.45-.9-.58Zm1.48-7.76c-.39,0-.6.15-.64.38s.45.55,1.16.55h0a3,3,0,0,1,1.45.45,2.06,2.06,0,0,0,.71.29c.3,0,.46-.1.48-.26,0-.38-.42-.7-1.19-1A8.34,8.34,0,0,0,111.52,113.43ZM115,132.15a.4.4,0,0,0,.36-.39c0-.55-.42-1-1.2-1.41a10.85,10.85,0,0,0-1.25-.52,4.19,4.19,0,0,0-.68-.16.59.59,0,0,0-.64.45.37.37,0,0,0,0,.16.71.71,0,0,0,.75.77,1.53,1.53,0,0,0,.41,0,2.43,2.43,0,0,1,1.45.64A1.9,1.9,0,0,0,115,132.15Z" fill="#066"/>
        <path d="M130,124.16c-3.4,0-5.1,1.2-5.13,3.48a3.76,3.76,0,0,0,.29,1.29q1.09,2.87,5.22,3.12a6.79,6.79,0,0,0,.78,0l2.54-.17c.39,0,.69-.06.91-.06,1.65.06,2.5.72,2.54,2s-.91,2.26-2.67,3a12.07,12.07,0,0,1-4.77,1,11.59,11.59,0,0,1-8.7-3.64,12.12,12.12,0,0,1-3.29-6.58,11.68,11.68,0,0,1,7.35-12.66,11.15,11.15,0,0,1,3.67-.68,8.65,8.65,0,0,1,5.74,2,8.2,8.2,0,0,1,1,1.06,5.57,5.57,0,0,1,1.12,3.19,3.49,3.49,0,0,1-.61,2c-.81,1.1-2.34,1.65-4.57,1.65Zm4.8-3.71a.33.33,0,0,0,.26-.26V120a3.4,3.4,0,0,0-.65-1.55c-.23-.32-.58-.75-1-1.28a2.19,2.19,0,0,0-1.29-.88.54.54,0,0,0-.51.55c.06.28.35.6.87,1l.09.06a4.37,4.37,0,0,1,1.23,1.55c.3.6.59,1,.87,1Zm0,13.92a1.62,1.62,0,0,1-.13.55v.23c0,.11.11.16.26.16.3-.07.47-.42.52-1.06s-.49-1.1-1.39-1.29c-.39-.11-.63-.06-.74.16a.23.23,0,0,0,0,.09v.13c0,.18.22.28.54.33C134.46,133.73,134.79,134,134.85,134.37Z" fill="#066"/>
        <path d="M139.69,116.68c-1.57,0-2.48-.31-2.71-.93a2.32,2.32,0,0,1-.07-.52c0-.81.65-1.42,1.94-1.8a1.31,1.31,0,0,1,.32-.1,67.79,67.79,0,0,1,11.31-2.51c.9-.09,1.77-.13,2.61-.13a21.82,21.82,0,0,1,4.26.38q3.57.84,3.61,3.1a2.87,2.87,0,0,1-1.39,2.32c-1,.69-2.84,1-5.41,1.06h-.49q-1.18,0-1.8,0a41.4,41.4,0,0,1,1.51,9.51q0,4.89-1.61,6.93a3.34,3.34,0,0,1-2.61,1.41,3.09,3.09,0,0,1-2.61-1.45.53.53,0,0,0-.06-.13q-1.2-1.74-1.2-5.76c0-1.08.19-3.36.55-6.84a39.09,39.09,0,0,0,.29-4.19,53.45,53.45,0,0,0-5.48-.32Zm10.57,6.48q.8-.14.87-1.35a4.53,4.53,0,0,0-.07-.65,4.74,4.74,0,0,0-.51-1.84A1.44,1.44,0,0,0,150,119a.44.44,0,0,0-.58.33.89.89,0,0,0,0,.19s0,.09,0,.26l0,.26v.7a5.15,5.15,0,0,0,.38,2.13A.87.87,0,0,0,150.26,123.16Zm9.15-8.83a2.34,2.34,0,0,0-.94-1.9,1.42,1.42,0,0,0-.9-.32c-.43,0-.65.23-.68.58.05.1.1.24.17.41a6.53,6.53,0,0,0,1.57,1.52,1.42,1.42,0,0,0,.36.16h.16a.31.31,0,0,0,.26-.23Z" fill="#066"/>
        <path d="M176.29,116.42a7.25,7.25,0,0,1,3.65-4.73,5.73,5.73,0,0,1,2.57-.58,5.52,5.52,0,0,1,4.32,2.22,13.29,13.29,0,0,1,2.65,7.19c.06.64.09,1.27.09,1.9a15.87,15.87,0,0,1-1.64,7.22,10.21,10.21,0,0,1-4.93,5.15,8.13,8.13,0,0,1-2.06.62,7.73,7.73,0,0,1-1.1.06,7.62,7.62,0,0,1-5-1.9,9.81,9.81,0,0,1-3.16-5.74,14.84,14.84,0,0,1-.19-2.29,20.61,20.61,0,0,1,.55-4.31c.64-2.63,1.72-4.17,3.22-4.65a4.43,4.43,0,0,1,.68-.12.58.58,0,0,0,.19,0Zm2.16,4.29a2.34,2.34,0,0,0-.9-1.9,1.83,1.83,0,0,0-.93-.36c-.41,0-.63.25-.65.62a1.56,1.56,0,0,0,.16.38,5.92,5.92,0,0,0,1.58,1.52,2.26,2.26,0,0,0,.33.16h.16a.26.26,0,0,0,.25-.23Zm1.81,1.13c0,.19-.1,1.32-.29,3.38a10,10,0,0,0-.1,1.32,5.11,5.11,0,0,0,.61,2.58,2.26,2.26,0,0,0,1.62,1.19,2.21,2.21,0,0,0,.35,0c1.2,0,2.13-.91,2.77-2.65a14.72,14.72,0,0,0,1-5.38,17.88,17.88,0,0,0-.36-3.51q-.93-4.16-3.67-4.19a4,4,0,0,0-2.32.84,15.62,15.62,0,0,0-1.71,1.54,5,5,0,0,1,2.06,3.9A6.22,6.22,0,0,1,180.26,121.84Zm4.41-9.15c-.25,0-.39.1-.42.25v.16a.61.61,0,0,0,.1.26,2.87,2.87,0,0,0,1.13,1h.16a.19.19,0,0,0,.13-.16.33.33,0,0,1,0-.1,1.46,1.46,0,0,0-.61-1.19A1.24,1.24,0,0,0,184.67,112.69Z" fill="#066"/>
        <path d="M198.72,129.09c-.19,0-.29.3-.29.77s0,.92.1,1.65a15.25,15.25,0,0,1,.13,1.67,7.89,7.89,0,0,1-.23,2,3.25,3.25,0,0,1-2.22,2.41,2.79,2.79,0,0,1-.64.07,3.31,3.31,0,0,1-2.68-1.64,9.09,9.09,0,0,1-1.13-5.06c0-1,0-1.66,0-2.13,0-.65,0-1.61.06-2.9a45.08,45.08,0,0,1,.74-8.64c.13-.53.27-1,.42-1.51.75-2.22,1.87-3.33,3.35-3.35a3.58,3.58,0,0,1,3,2.09.57.57,0,0,1,.1.13,15.78,15.78,0,0,1,1.38,4.48q.81,4.35,2,9.34a1.2,1.2,0,0,0,.58.81.44.44,0,0,0,.58-.23.34.34,0,0,0,0-.16v-.45q-.08-.9-.81-5.8a29,29,0,0,1-.42-4.41V118q0-3.72,2.06-5.19a5.34,5.34,0,0,1,.75-.39,3.35,3.35,0,0,1,3.7.87,6.15,6.15,0,0,1,1.23,3,26.45,26.45,0,0,1,.42,4.77,57.44,57.44,0,0,1-1.62,11.86q-.73,3.33-2.28,4a2.78,2.78,0,0,1-1,.19,4.53,4.53,0,0,1-3-1.67,22.63,22.63,0,0,1-4.06-6.1.35.35,0,0,1-.07-.09A.58.58,0,0,0,198.72,129.09Zm-.32-12.73a2.68,2.68,0,0,0-1-2.19,1.51,1.51,0,0,0-.84-.26c-.36,0-.56.15-.58.39v.25a1.38,1.38,0,0,0,.16.42,6.55,6.55,0,0,0,1.55,1.65l.29.19h.23a.26.26,0,0,0,.22-.26Zm10.38-.74a2,2,0,0,0-1-1.74,1.52,1.52,0,0,0-.77-.23c-.39,0-.59.13-.61.32v.2a.84.84,0,0,0,.16.38,5.16,5.16,0,0,0,1.48,1.33l.32.16h.16a.4.4,0,0,0,.23-.23Z" fill="#066"/>
        <path d="M215.16,117c-1.4,0-2.11-.41-2.13-1.16s.56-1.17,1.68-1.52l.1,0h0l.06,0v-.36c0-1.65.52-2.62,1.55-2.9A2.38,2.38,0,0,1,217,111c1,0,1.73.71,2.22,2.06a20.18,20.18,0,0,1,5.29-.77q3.63,0,4.8,1.51a1.69,1.69,0,0,1,.38,1.1q0,2.25-3.51,2.67a15.93,15.93,0,0,1-1.77.07,42.9,42.9,0,0,1-4.42-.29c.07.68.12,1.68.17,3a7.56,7.56,0,0,1,2.28-.38c1.49,0,2.5.38,3,1.16a1.55,1.55,0,0,1,.29.93q0,2.61-5.67,2.61L220,127c-.06,1-.1,1.81-.12,2.32a14.92,14.92,0,0,1,5.12-1q4.77,0,5.28,3.26a4,4,0,0,1,.07.77,4.09,4.09,0,0,1-1.06,2.77,5.27,5.27,0,0,1-3.68,1.2h-.55a53.85,53.85,0,0,1-5.51-.58,24.39,24.39,0,0,0-3.54-.33h-1a2.14,2.14,0,0,1-.87-.13,1.82,1.82,0,0,1-.9-1.64,2.24,2.24,0,0,1,1.48-2.09l.65-.29.64-.29a6.92,6.92,0,0,1-.1-1.29v-1.78c0-1.11,0-2.24-.09-3.38a.82.82,0,0,1-.91-.71.63.63,0,0,1,0-.19,1.28,1.28,0,0,1,.78-1.13C215.46,120,215.29,118.24,215.16,117Zm8.35,4.15c-.26,0-.4.16-.42.36a.23.23,0,0,0,0,.09c0,.09.1.14.23.17h.16l.16,0a.44.44,0,0,1,.22.13.78.78,0,0,0,.33.16h.09a.22.22,0,0,0,.16-.2v-.16c-.08-.25-.38-.45-.9-.58Zm1.48-7.76c-.39,0-.6.15-.65.38s.46.55,1.16.55h0a3,3,0,0,1,1.45.45,2.06,2.06,0,0,0,.71.29c.3,0,.46-.1.48-.26,0-.38-.42-.7-1.19-1A8.34,8.34,0,0,0,225,113.43Zm3.51,18.72a.41.41,0,0,0,.36-.39c0-.55-.42-1-1.2-1.41a10.85,10.85,0,0,0-1.25-.52,4.46,4.46,0,0,0-.68-.16.59.59,0,0,0-.64.45.37.37,0,0,0,0,.16.71.71,0,0,0,.74.77,1.66,1.66,0,0,0,.42,0,2.43,2.43,0,0,1,1.45.64A1.9,1.9,0,0,0,228.5,132.15Z" fill="#066"/>
      </g>
    </g>
  </g>
</svg>
