<svg id="project2" xmlns="http://www.w3.org/2000/svg" viewBox="0 0 256 256">
  <g id="border2">
    <path d="M128,10.5a117.51,117.51,0,0,1,83.09,200.59A117.51,117.51,0,0,1,44.91,44.91,116.75,116.75,0,0,1,128,10.5m0-6A123.5,123.5,0,1,0,251.5,128,123.5,123.5,0,0,0,128,4.5Z" fill="#066"/>
  </g>
  <g id="Layer_4" data-name="Layer 4">
    <g>
      <path d="M24.86,129c-1,0-1.53-.32-1.63-1a.88.88,0,0,1,0-.21,2.24,2.24,0,0,1,.06-.44,2.84,2.84,0,0,1,2.47-1.69q-.09-1.16-.53-5.59a3.87,3.87,0,0,1-2.94-1.88,3.8,3.8,0,0,1-.53-1.94,4.46,4.46,0,0,1,2.66-4.12,6.33,6.33,0,0,1,1.34-.53,10,10,0,0,1,2.35-.28,15.17,15.17,0,0,1,2.34.18q6.06.91,8.16,4.72l.21.47a6.81,6.81,0,0,1,.54,2.72,8,8,0,0,1-.47,2.69,9.87,9.87,0,0,1-5.63,5.56,14.06,14.06,0,0,1-2.84.91h-.1a.09.09,0,0,1-.06,0c0,.29,0,.72-.06,1.28s0,1,0,1.28a6.5,6.5,0,0,1-.41,2.28A2.52,2.52,0,0,1,28,134.79a1.92,1.92,0,0,1-1.84-1.44.09.09,0,0,1,0-.06,5.12,5.12,0,0,1-.28-1.69v-.41c0-.21,0-.35,0-.44V129Zm5.5-8.87q.06,1,.06,3,0,1.59,0,2.4a3.1,3.1,0,0,0,2.69-1.9,2.41,2.41,0,0,0,.15-.85c0-1.18-.73-2-2.19-2.47Zm6.78-2.94a2.32,2.32,0,0,0-.91-1.84,1.52,1.52,0,0,0-.9-.32c-.4,0-.61.23-.63.57a1.11,1.11,0,0,0,.16.37,5.7,5.7,0,0,0,1.53,1.47,1.62,1.62,0,0,0,.31.19h.19a.32.32,0,0,0,.25-.25Z" fill="#066"/>
      <path d="M42.89,133.29c0-.36.08-1.8.25-4.32a1.22,1.22,0,0,1-1.31-.84c0-.13,0-.25-.07-.38q0-1,1.38-1.71l.22-.1c.1-2.19.15-4.15.15-5.9a3.71,3.71,0,0,1-2.75-2A4.28,4.28,0,0,1,43,112.1a7.21,7.21,0,0,1,1.28-.5,10.05,10.05,0,0,1,2.35-.28,15.17,15.17,0,0,1,2.34.18q6.35,1,8.31,5a.5.5,0,0,0,.07.19,7.38,7.38,0,0,1,.56,2.72,7.58,7.58,0,0,1-.5,2.69,9.13,9.13,0,0,1-3.56,4.47l-.91.53,1.88.78A9.76,9.76,0,0,1,58,130.35a3.79,3.79,0,0,1,.94,2.44A2.31,2.31,0,0,1,57.61,135a3,3,0,0,1-1.28.29,4.11,4.11,0,0,1-2.13-.69,9.08,9.08,0,0,1-2.34-2.6,10.59,10.59,0,0,0-2.25-2.59l-.25-.19-1-.56a1.78,1.78,0,0,0-.38.06,3.1,3.1,0,0,0-.37.07c-.21,1.43-.37,2.76-.47,4-.15,2-.65,3.14-1.5,3.47a2.88,2.88,0,0,1-.75.16,1.88,1.88,0,0,1-1.72-1.25.73.73,0,0,0-.09-.22A4.91,4.91,0,0,1,42.89,133.29ZM48.64,120a52.76,52.76,0,0,1-.53,5.53A3.86,3.86,0,0,0,51.45,124a2.6,2.6,0,0,0,.34-1.32,2.54,2.54,0,0,0-2-2.4A7.58,7.58,0,0,0,48.64,120Zm7.09-2.88a2.24,2.24,0,0,0-.9-1.84A1.45,1.45,0,0,0,54,115c-.42,0-.64.21-.66.57a2.25,2.25,0,0,0,.16.37A6.37,6.37,0,0,0,55,117.41l.35.19h.15a.37.37,0,0,0,.25-.25Zm1.16,14.59a2.38,2.38,0,0,0-.91-1.84,1.51,1.51,0,0,0-.9-.31c-.4,0-.61.21-.63.56a1.24,1.24,0,0,0,.16.38A6.56,6.56,0,0,0,56.14,132a1.52,1.52,0,0,0,.31.16h.19a.3.3,0,0,0,.25-.22Z" fill="#066"/>
      <path d="M64.33,116.85a7,7,0,0,1,3.53-4.6,5.69,5.69,0,0,1,2.5-.56,5.34,5.34,0,0,1,4.18,2.16,12.85,12.85,0,0,1,2.57,7c.06.62.09,1.24.09,1.84a15.33,15.33,0,0,1-1.59,7,9.94,9.94,0,0,1-4.78,5,7.63,7.63,0,0,1-2,.59,5.91,5.91,0,0,1-1.07.07,7.33,7.33,0,0,1-4.87-1.85,9.36,9.36,0,0,1-3.06-5.56,13,13,0,0,1-.19-2.22,19.47,19.47,0,0,1,.53-4.19q.93-3.81,3.12-4.5a4.2,4.2,0,0,1,.66-.12l.19,0ZM66.42,121a2.26,2.26,0,0,0-.88-1.84,1.7,1.7,0,0,0-.9-.34c-.4,0-.61.24-.63.59a1.15,1.15,0,0,0,.16.38,5.84,5.84,0,0,0,1.53,1.46,1.83,1.83,0,0,0,.31.16h.16a.26.26,0,0,0,.25-.22Zm1.75,1.1c0,.19-.09,1.28-.28,3.28a11.33,11.33,0,0,0-.1,1.28,4.85,4.85,0,0,0,.6,2.5A2.17,2.17,0,0,0,70,130.32l.34,0c1.17,0,2.07-.88,2.69-2.56a14.35,14.35,0,0,0,.94-5.22,18.42,18.42,0,0,0-.34-3.41q-.92-4-3.57-4.06a3.93,3.93,0,0,0-2.25.81,15.79,15.79,0,0,0-1.65,1.5,4.9,4.9,0,0,1,2,3.78A7.19,7.19,0,0,1,68.17,122.1Zm4.28-8.88c-.25,0-.39.11-.41.25v.16a.58.58,0,0,0,.1.25,2.83,2.83,0,0,0,1.09,1h.16a.19.19,0,0,0,.12-.16.23.23,0,0,1,0-.09,1.41,1.41,0,0,0-.59-1.16A1.32,1.32,0,0,0,72.45,113.22Z" fill="#066"/>
      <path d="M86.23,127.38c0-.9-.15-3-.47-6.19-.14-1.48-.22-2.72-.22-3.72a8.48,8.48,0,0,1,.6-3.4,4.31,4.31,0,0,1,2.34-2.32,3.37,3.37,0,0,1,1-.15A3.66,3.66,0,0,1,92.79,114a3.52,3.52,0,0,1,.25.53,14.59,14.59,0,0,1,.54,4.47,1.58,1.58,0,0,1,0,.28c0,.53,0,1.31.06,2.35q.09,2.13.09,3.15a16.37,16.37,0,0,1-1.5,7.6l-.18.31a9.06,9.06,0,0,1-4.25,4,8.08,8.08,0,0,1-3.22.69,7.35,7.35,0,0,1-2.5-.44,6.73,6.73,0,0,1-3.6-3.13,9.49,9.49,0,0,1-.81-2.56,7.59,7.59,0,0,1-.06-.78c0-1,.37-1.45,1.06-1.47s1,.54,1.19,1.63a.49.49,0,0,1,0,.15,4,4,0,0,0,2,3.13,2.9,2.9,0,0,0,1.34.31,2.35,2.35,0,0,0,2.19-1.47,5.31,5.31,0,0,0,.34-1A17.82,17.82,0,0,0,86.23,127.38Zm5.47-10.25a.25.25,0,0,0,.22-.25.23.23,0,0,1,0-.09v-.44A3.86,3.86,0,0,0,90.48,113a1,1,0,0,0-.59-.21.43.43,0,0,0-.47.46l0,.07a3.11,3.11,0,0,0,.69.9l.15.16a4.86,4.86,0,0,1,.66,1.72c.14.6.35,1,.62,1Z" fill="#066"/>
      <path d="M97.83,117.44c-1.36,0-2-.39-2.07-1.12s.54-1.14,1.63-1.47l.09,0h0l.07,0v-.35c0-1.6.5-2.54,1.5-2.81a2.2,2.2,0,0,1,.53-.06c1,0,1.67.68,2.15,2a19.88,19.88,0,0,1,5.13-.75q3.52,0,4.65,1.47a1.64,1.64,0,0,1,.38,1.06c0,1.46-1.16,2.32-3.41,2.59-.39,0-1,.06-1.72.06a39.86,39.86,0,0,1-4.28-.28c.07.67.12,1.64.16,2.91a7.19,7.19,0,0,1,2.22-.38,3.36,3.36,0,0,1,2.94,1.13,1.6,1.6,0,0,1,.28.91c0,1.68-1.86,2.53-5.5,2.53,0,.5-.06,1.25-.1,2.25s-.1,1.75-.12,2.25a14.25,14.25,0,0,1,5-1q4.62,0,5.12,3.15a4.74,4.74,0,0,1,.06.75,3.93,3.93,0,0,1-1,2.69A5.06,5.06,0,0,1,108,136.1h-.53a50.9,50.9,0,0,1-5.34-.56,24.29,24.29,0,0,0-3.44-.32H97.7a2.23,2.23,0,0,1-.84-.12,1.78,1.78,0,0,1-.88-1.6,2.19,2.19,0,0,1,1.44-2l.62-.28.63-.28a6.6,6.6,0,0,1-.09-1.25v-1.72c0-1.08,0-2.17-.1-3.28a.78.78,0,0,1-.87-.69.38.38,0,0,1,0-.18,1.25,1.25,0,0,1,.75-1.1C98.12,120.36,98,118.61,97.83,117.44Zm8.09,4c-.25,0-.39.16-.41.35a.23.23,0,0,0,0,.09.25.25,0,0,0,.22.16h.16l.16,0a.46.46,0,0,1,.21.12.65.65,0,0,0,.32.16h.09c.08,0,.13-.08.16-.19V122c-.09-.25-.38-.44-.88-.57Zm1.44-7.53c-.38,0-.59.15-.63.38s.44.53,1.13.53h0a2.86,2.86,0,0,1,1.4.44,2.14,2.14,0,0,0,.69.28c.29,0,.45-.11.47-.25,0-.38-.41-.69-1.16-.94A8,8,0,0,0,107.36,113.94Zm3.4,18.16a.41.41,0,0,0,.35-.38c0-.54-.41-1-1.16-1.37a9.56,9.56,0,0,0-1.22-.5,4,4,0,0,0-.65-.16.58.58,0,0,0-.63.44.5.5,0,0,0,0,.16.69.69,0,0,0,.72.75,2.17,2.17,0,0,0,.4,0,2.44,2.44,0,0,1,1.41.62A1.79,1.79,0,0,0,110.76,132.1Z" fill="#066"/>
      <path d="M125.29,124.35c-3.29,0-4.94,1.17-5,3.37a3.44,3.44,0,0,0,.28,1.25q1,2.79,5.06,3a6.28,6.28,0,0,0,.75,0l2.47-.16a8.61,8.61,0,0,1,.87-.06c1.61.06,2.43.69,2.47,1.9s-.88,2.2-2.59,2.91a11.86,11.86,0,0,1-4.63.94,11.26,11.26,0,0,1-8.43-3.53,11.77,11.77,0,0,1-3.19-6.38,10.65,10.65,0,0,1-.13-1.75,10.88,10.88,0,0,1,3.22-7.87,11,11,0,0,1,4-2.66,10.75,10.75,0,0,1,3.57-.66,7.77,7.77,0,0,1,6.53,3,5.46,5.46,0,0,1,1.09,3.1,3.45,3.45,0,0,1-.59,2q-1.2,1.6-4.44,1.6Zm4.66-3.6a.3.3,0,0,0,.25-.25v-.18a3.28,3.28,0,0,0-.62-1.5c-.23-.32-.57-.73-1-1.25a2.12,2.12,0,0,0-1.25-.85.52.52,0,0,0-.5.53c.06.28.34.59.84.94l.09.06a4.28,4.28,0,0,1,1.19,1.5c.29.59.57.92.84,1Zm0,13.5a1.78,1.78,0,0,1-.12.54V135c0,.11.1.16.25.16s.45-.41.5-1-.47-1.06-1.35-1.25c-.37-.1-.61,0-.72.16a.23.23,0,0,0,0,.09v.12c0,.17.22.28.53.32C129.61,133.63,129.92,133.86,130,134.25Z" fill="#066"/>
      <path d="M134.67,117.1c-1.52,0-2.4-.3-2.63-.91a2.07,2.07,0,0,1-.06-.5c0-.79.63-1.37,1.88-1.75a1.58,1.58,0,0,1,.31-.09,66.37,66.37,0,0,1,11-2.44c.87-.08,1.72-.12,2.53-.12a20.47,20.47,0,0,1,4.12.37c2.32.54,3.48,1.54,3.5,3a2.72,2.72,0,0,1-1.34,2.25q-1.5,1-5.25,1h-.47c-.77,0-1.35,0-1.75,0a40.16,40.16,0,0,1,1.47,9.22q0,4.76-1.56,6.72a3.26,3.26,0,0,1-2.53,1.37,3,3,0,0,1-2.53-1.4.46.46,0,0,0-.07-.13c-.77-1.12-1.15-3-1.15-5.59,0-1,.17-3.25.53-6.63a36.48,36.48,0,0,0,.28-4.06,50.18,50.18,0,0,0-5.31-.31Zm10.25,6.28c.52-.08.8-.52.84-1.31a4.11,4.11,0,0,0-.06-.63,4.5,4.5,0,0,0-.5-1.78,1.27,1.27,0,0,0-.5-.28.41.41,0,0,0-.56.31,1,1,0,0,0,0,.19s0,.08,0,.25l0,.25v.69a4.91,4.91,0,0,0,.37,2.06A.77.77,0,0,0,144.92,123.38Zm8.87-8.56a2.33,2.33,0,0,0-.9-1.85,1.45,1.45,0,0,0-.88-.31c-.41,0-.63.23-.65.56l.15.41A6.57,6.57,0,0,0,153,115.1a1.5,1.5,0,0,0,.35.15h.15c.15,0,.23-.11.25-.21Z" fill="#066"/>
      <path d="M167.23,117.1c-1.52,0-2.39-.3-2.62-.91a2.08,2.08,0,0,1-.07-.5c0-.79.63-1.37,1.88-1.75a1.81,1.81,0,0,1,.31-.09,66.37,66.37,0,0,1,11-2.44c.88-.08,1.72-.12,2.53-.12a20.57,20.57,0,0,1,4.13.37c2.31.54,3.47,1.54,3.5,3a2.76,2.76,0,0,1-1.35,2.25q-1.5,1-5.25,1h-.47c-.77,0-1.35,0-1.75,0a40.16,40.16,0,0,1,1.47,9.22q0,4.76-1.56,6.72a3.25,3.25,0,0,1-2.53,1.37,3,3,0,0,1-2.53-1.4.31.31,0,0,0-.06-.13c-.78-1.12-1.16-3-1.16-5.59q0-1.56.53-6.63a36.48,36.48,0,0,0,.28-4.06,50.18,50.18,0,0,0-5.31-.31Zm10.25,6.28c.52-.08.8-.52.85-1.31a7.62,7.62,0,0,0-.57-2.41,1.2,1.2,0,0,0-.5-.28.41.41,0,0,0-.56.31,1,1,0,0,0,0,.19s0,.08,0,.25l0,.25v.69a4.91,4.91,0,0,0,.37,2.06A.77.77,0,0,0,177.48,123.38Zm8.88-8.56a2.37,2.37,0,0,0-.91-1.85,1.45,1.45,0,0,0-.87-.31c-.42,0-.64.23-.66.56l.16.41a6.37,6.37,0,0,0,1.53,1.47,1.47,1.47,0,0,0,.34.15h.16a.32.32,0,0,0,.25-.21Z" fill="#066"/>
      <path d="M213.29,114.63a3.51,3.51,0,0,1,3.38,2.53,7.75,7.75,0,0,1,.53,2.72,13.58,13.58,0,0,1-1,4.53c-.12.36-.21.58-.25.69-1.69,4.66-3,7.94-3.84,9.81a8.08,8.08,0,0,1-1.72,2.47,3,3,0,0,1-1.72.59,4,4,0,0,1-3-2,11.46,11.46,0,0,1-1.6-5.22c0-.39-.08-1-.12-1.78-.11-1.46-.22-2.54-.34-3.25,0-.08,0-.12,0-.12a.36.36,0,0,0-.12-.13h-.06a1.43,1.43,0,0,0-.16.19c-.23.46-.58,1.15-1.06,2.06q-1,1.94-1.47,2.88a30,30,0,0,1-2.06,3.78,6,6,0,0,1-3,2.25,5.16,5.16,0,0,1-1.28.19c-2.11,0-3.47-1.51-4.1-4.41q-.37-1.81-1-7.25c-.21-1.9-.43-3.43-.68-4.59a25.85,25.85,0,0,1-.72-4.41,5,5,0,0,1,.65-2.63,3.33,3.33,0,0,1,2.78-1.68,3.75,3.75,0,0,1,.79.09c2.5.58,4.07,2.88,4.71,6.88q.28,1.9.47,7.43a2.22,2.22,0,0,0,0,.41c0,.31.13.49.32.53s.2-.12.31-.31c.91-1.65,1.46-2.58,1.62-2.81a5.41,5.41,0,0,1,2.32-2,3.53,3.53,0,0,1,1.12-.21,2.68,2.68,0,0,1,2.44,2c.08.23.21.57.37,1,.44,1.4.72,2.42.85,3.07a.43.43,0,0,0,.06.22.19.19,0,0,0,.16.15c.18.11.32,0,.4-.4a.33.33,0,0,0,0-.1c.09-.5.48-2.32,1.19-5.47.1-.43.19-.82.25-1.15a23.79,23.79,0,0,1,1-3.75c.08-.15.16-.28.22-.41a4,4,0,0,1,2.91-2.25A3.11,3.11,0,0,1,213.29,114.63ZM194,115.94a2.34,2.34,0,0,0-.87-1.84,1.52,1.52,0,0,0-.91-.31.63.63,0,0,0-.65.56l.15.37a6.48,6.48,0,0,0,1.57,1.47.72.72,0,0,0,.31.19h.19a.38.38,0,0,0,.21-.25Zm21.19,2.56a2.28,2.28,0,0,0-.87-1.84,1.56,1.56,0,0,0-.91-.31c-.42,0-.64.21-.66.56,0,.11.1.23.16.38a6.4,6.4,0,0,0,1.56,1.46,2,2,0,0,0,.32.19H215a.35.35,0,0,0,.22-.25Z" fill="#066"/>
      <path d="M223,116.85a7.09,7.09,0,0,1,3.53-4.6,5.72,5.72,0,0,1,2.5-.56,5.36,5.36,0,0,1,4.19,2.16,12.77,12.77,0,0,1,2.56,7,16.46,16.46,0,0,1,.1,1.84,15.21,15.21,0,0,1-1.6,7,9.9,9.9,0,0,1-4.78,5,7.52,7.52,0,0,1-2,.59,5.79,5.79,0,0,1-1.06.07,7.36,7.36,0,0,1-4.88-1.85,9.46,9.46,0,0,1-3.06-5.56,14.06,14.06,0,0,1-.19-2.22,19.5,19.5,0,0,1,.54-4.19q.93-3.81,3.12-4.5a4.2,4.2,0,0,1,.66-.12l.18,0Zm2.1,4.15a2.32,2.32,0,0,0-.88-1.84,1.7,1.7,0,0,0-.91-.34.6.6,0,0,0-.62.59,1.15,1.15,0,0,0,.16.38,5.84,5.84,0,0,0,1.53,1.46,1.52,1.52,0,0,0,.31.16h.16a.27.27,0,0,0,.25-.22Zm1.75,1.1c0,.19-.1,1.28-.29,3.28a11,11,0,0,0-.09,1.28,5,5,0,0,0,.59,2.5,2.21,2.21,0,0,0,1.57,1.16l.34,0c1.17,0,2.06-.88,2.69-2.56a14.56,14.56,0,0,0,.94-5.22,17.63,17.63,0,0,0-.35-3.41q-.9-4-3.56-4.06a3.93,3.93,0,0,0-2.25.81,16.91,16.91,0,0,0-1.66,1.5,4.87,4.87,0,0,1,2,3.78A7.25,7.25,0,0,1,226.83,122.1Zm4.28-8.88c-.25,0-.39.11-.41.25v.16a.54.54,0,0,0,.09.25,2.86,2.86,0,0,0,1.1,1H232a.19.19,0,0,0,.13-.16.23.23,0,0,1,0-.09,1.44,1.44,0,0,0-.59-1.16A1.39,1.39,0,0,0,231.11,113.22Z" fill="#066"/>
    </g>
  </g>
</svg>
